<?xml version="1.0" encoding="iso-8859-1"?>
<!-- Generator: Adobe Illustrator 19.0.0, SVG Export Plug-In . SVG Version: 6.00 Build 0)  -->
<svg version="1.1" id="Capa_1" xmlns="http://www.w3.org/2000/svg" xmlns:xlink="http://www.w3.org/1999/xlink" x="0px" y="0px"
	 viewBox="0 0 512 512" style="enable-background:new 0 0 512 512;" xml:space="preserve">
<path style="fill:#29485A;" d="M0,491.016h503.607v16.787H0V491.016z"/>
<path style="fill:#ED1C24;" d="M419.672,390.295h67.148v75.541h-67.148V390.295z"/>
<path style="fill:#F68B1F;" d="M318.951,297.967h67.148v167.869h-67.148V297.967z"/>
<path style="fill:#F15A22;" d="M218.229,339.934h67.148v125.902h-67.148V339.934z"/>
<path style="fill:#F68B1F;" d="M117.508,197.246h67.148v268.59h-67.148V197.246z"/>
<path style="fill:#FDB913;" d="M16.787,79.738h67.148v386.098H16.787V79.738z"/>
<g>
	<path style="fill:#ED1C24;" d="M489.279,270.328l-141.79-141.774l-90.7,67.013c-3.341,2.459-7.982,2.098-10.911-0.839
		L69.615,18.466L81.484,6.597l171.159,171.209l90.7-67.013c3.341-2.459,7.982-2.098,10.911,0.839l146.885,146.885L489.279,270.328z"
		/>
	<path style="fill:#ED1C24;" d="M495.213,272.787h-41.967V256h33.574v-33.574h16.787v41.967
		C503.607,269.027,499.846,272.787,495.213,272.787z"/>
</g>
<g>
	<path style="fill:#29485A;" d="M377.705,4.197H512v16.787H377.705V4.197z"/>
	<path style="fill:#29485A;" d="M377.705,29.377H512v16.787H377.705V29.377z"/>
	<path style="fill:#29485A;" d="M377.705,54.557H512v16.787H377.705V54.557z"/>
	<path style="fill:#29485A;" d="M377.705,79.738h67.148v16.787h-67.148V79.738z"/>
</g>
<g>
</g>
<g>
</g>
<g>
</g>
<g>
</g>
<g>
</g>
<g>
</g>
<g>
</g>
<g>
</g>
<g>
</g>
<g>
</g>
<g>
</g>
<g>
</g>
<g>
</g>
<g>
</g>
<g>
</g>
</svg>
